<svg width="456" height="429" viewBox="0 0 456 429" fill="none" xmlns="http://www.w3.org/2000/svg">
<path d="M230 89.9694C207 135.969 26.5 38.4694 0 4.96939C8.13603e-06 53.4694 75.5 179.469 181.5 207.969V213.469C156 209.969 81 184.469 31.5 141.969C18.5 214.469 131 309.636 181.5 326.969V333.969C155.667 327.303 110.5 314.469 74.5 273.969C67.5 314.469 166 422.469 252.5 403.469L261 399.469V106.969L230 89.9694Z" fill="url(#paint0_linear_7_11)"/>
<path d="M304.908 405.824L306.469 237.917C306.488 235.889 305.28 234.051 303.412 233.263L271.789 219.926C271.415 219.768 271.023 219.656 270.623 219.593L234.277 213.878C231.243 213.401 228.5 215.746 228.5 218.817V405.824C230.09 424.206 254.334 428.238 266.258 427.956C295.089 427.186 304.037 412.881 304.908 405.824Z" fill="url(#paint1_linear_7_11)" stroke="black" stroke-opacity="0.06"/>
<path d="M298 405.469H236.5C236.5 413.069 240.5 416.969 242.5 417.969C258 418.469 289.7 419.169 292.5 417.969C295.3 416.769 297.333 409.136 298 405.469Z" fill="url(#paint2_linear_7_11)" stroke="black" stroke-opacity="0.08"/>
<path d="M145 113.469C149.099 176.999 253.431 248.054 307.151 234.023C310.414 233.171 313.721 232.407 317.09 232.537C327.532 232.941 341.055 234.097 353 221.469C370.5 202.969 379 187.469 380.5 181.469C382 175.469 389.5 119.969 389 113.469C388.6 108.269 387.167 97.9694 386.5 93.4694C382 62.4694 311.03 11.5624 270 2.96939C202 -11.2721 140.097 37.4694 145 113.469Z" fill="url(#paint3_linear_7_11)"/>
<path d="M215 61.9694C210.593 67.845 209.962 73.1813 210.731 77.3838C211.242 80.1825 212.933 82.5719 214.771 84.7438L215.043 85.0656C216.674 86.9937 218.543 88.7081 220.604 90.1681L229.5 96.4694L237.5 101.969L242.5 105.469L248.5 108.969C254.5 113.469 266.5 114.969 273.5 107.469C277.765 102.9 278.392 96.1 277.678 91.0515C277.136 87.2174 274.416 84.2628 271.336 81.9161L265.5 77.4694L258 72.4694L244 62.9694L234.5 57.9694C229 54.9694 220.5 55.9694 215 61.9694Z" fill="black"/>
<path d="M274.828 86.5623C267.849 71.1993 237.944 78.153 219.5 88.9694C227.808 93.3476 248.027 110.964 257 111.469C267.468 115.006 284.299 102.728 274.828 86.5623Z" fill="url(#paint4_linear_7_11)"/>
<path d="M216.5 59.9694C203 75.9694 214.5 84.9694 219.5 89.4694C224.5 86.9694 235.6 81.5694 240 79.9694C244.4 78.3694 257.167 76.6361 263 75.9694C249.5 66.4694 230 48.4694 216.5 59.9694Z" fill="url(#paint5_linear_7_11)" fill-opacity="0.71"/>
<path d="M270.634 8.20183C179.634 -8.79808 143.5 63.9695 154 105.469C152.667 103.969 151.5 108.602 147.5 112.202C137 53.4694 190.134 -13.2981 272.134 3.70184L270.634 8.20183Z" fill="url(#paint6_linear_7_11)"/>
<path d="M249.5 0.969463C315.5 19.4694 374 67.4695 374 90.4694C374 90.4694 377.388 90.8569 380.5 90.4694C383.612 90.0819 386 90.4694 386 90.4694C370 44.4694 276 -4.53061 249.5 0.969463Z" fill="url(#paint7_linear_7_11)"/>
<path d="M157 61.4694C133.5 152.469 230.507 216.469 296.007 213.969C297.034 218.791 299.876 226.956 304.5 233.969C252 247.469 101.5 159.469 157 61.4694Z" fill="url(#paint8_linear_7_11)"/>
<path d="M145 113.469C149.099 176.999 253.431 248.054 307.151 234.023C310.414 233.171 313.721 232.407 317.09 232.537C327.532 232.941 341.055 234.097 353 221.469C370.5 202.969 379 187.469 380.5 181.469C382 175.469 389.5 119.969 389 113.469C388.6 108.269 387.167 97.9694 386.5 93.4694C382 62.4694 311.03 11.5624 270 2.96939C202 -11.2721 140.097 37.4694 145 113.469Z" stroke="url(#paint9_linear_7_11)" stroke-opacity="0.53"/>
<path d="M312 134.469C270 203.969 300.432 234.805 322 247.969C360.5 271.469 413 261.469 443.5 207.969C473.286 155.722 432.973 107.766 411.976 98.5639C410.995 98.1343 410.056 97.6712 409.119 97.154C392.604 88.0369 343.944 81.6103 312 134.469Z" fill="url(#paint10_linear_7_11)" stroke="black" stroke-opacity="0.03" stroke-width="2"/>
<path d="M401 188.969C383.551 214.629 385.953 226.511 390.872 231.497C392.399 233.045 394.641 233.632 396.789 233.292C405.022 231.992 417.153 224.213 427.5 203.969C439 181.469 431 170.969 426.5 169.969C420.5 168.636 412 171.969 401 188.969Z" fill="url(#paint11_linear_7_11)" stroke="black" stroke-opacity="0.17"/>
<defs>
<linearGradient id="paint0_linear_7_11" x1="13.5" y1="-18.0306" x2="283.5" y2="438.97" gradientUnits="userSpaceOnUse">
<stop stop-color="#518FED"/>
<stop offset="1" stop-color="#06E04F"/>
</linearGradient>
<linearGradient id="paint1_linear_7_11" x1="220" y1="298.469" x2="320" y2="298.469" gradientUnits="userSpaceOnUse">
<stop offset="0.0112337" stop-color="#F9F9F9"/>
<stop offset="0.216464" stop-color="white"/>
<stop offset="0.622038" stop-color="#EBEBEB"/>
<stop offset="0.972016" stop-color="white"/>
</linearGradient>
<linearGradient id="paint2_linear_7_11" x1="236" y1="399.969" x2="298" y2="401.969" gradientUnits="userSpaceOnUse">
<stop offset="0.0859519" stop-color="#212121" stop-opacity="0.8"/>
<stop offset="0.254808" stop-color="#737373" stop-opacity="0.2"/>
<stop offset="0.485577" stop-color="#E3E1E1"/>
<stop offset="0.798077" stop-color="#737373" stop-opacity="0.2"/>
<stop offset="0.95123" stop-color="#1C1C1C" stop-opacity="0.8"/>
</linearGradient>
<linearGradient id="paint3_linear_7_11" x1="138" y1="188.969" x2="377" y2="-47.0306" gradientUnits="userSpaceOnUse">
<stop offset="0.252515" stop-color="#FBF9F9"/>
<stop offset="0.481204" stop-color="#F3F2F2"/>
<stop offset="0.677868" stop-color="#FBFBFB"/>
</linearGradient>
<linearGradient id="paint4_linear_7_11" x1="233.5" y1="66.9694" x2="250.721" y2="94.8326" gradientUnits="userSpaceOnUse">
<stop offset="0.0951612" stop-color="#484545"/>
<stop offset="0.786454"/>
</linearGradient>
<linearGradient id="paint5_linear_7_11" x1="219" y1="55.9694" x2="243" y2="88.9694" gradientUnits="userSpaceOnUse">
<stop stop-color="#FFFBFB"/>
<stop offset="1" stop-color="#737373"/>
</linearGradient>
<linearGradient id="paint6_linear_7_11" x1="145.134" y1="53.7019" x2="230.634" y2="-8.79809" gradientUnits="userSpaceOnUse">
<stop stop-color="#F8F8F8"/>
<stop offset="0.542391" stop-color="#E1E1E1"/>
<stop offset="1" stop-color="#F3F2F2"/>
</linearGradient>
<linearGradient id="paint7_linear_7_11" x1="269.5" y1="-13.5306" x2="408.5" y2="84.4694" gradientUnits="userSpaceOnUse">
<stop stop-color="#F3F2F2"/>
<stop offset="0.619479" stop-color="#F3F3F3"/>
<stop offset="1" stop-color="#F9F9F9"/>
</linearGradient>
<linearGradient id="paint8_linear_7_11" x1="128.5" y1="98.4694" x2="277.5" y2="296.969" gradientUnits="userSpaceOnUse">
<stop stop-color="#F8F8F8"/>
<stop offset="0.538527" stop-color="#F1F1F1"/>
<stop offset="0.741903" stop-color="#F3F3F3"/>
<stop offset="1" stop-color="#CECECE"/>
</linearGradient>
<linearGradient id="paint9_linear_7_11" x1="163" y1="26.9694" x2="331" y2="249.969" gradientUnits="userSpaceOnUse">
<stop stop-color="#F0F0F0"/>
<stop offset="1" stop-color="#D3CECE"/>
</linearGradient>
<linearGradient id="paint10_linear_7_11" x1="483" y1="292.469" x2="483.5" y2="86.4694" gradientUnits="userSpaceOnUse">
<stop offset="0.148348" stop-color="#D5D1D1"/>
<stop offset="0.31273" stop-color="#DEDDDD"/>
<stop offset="0.530735" stop-color="#F4F3F3"/>
<stop offset="0.771314" stop-color="#FCFCFC"/>
<stop offset="1" stop-color="white"/>
</linearGradient>
<linearGradient id="paint11_linear_7_11" x1="442.5" y1="212.469" x2="387" y2="179.469" gradientUnits="userSpaceOnUse">
<stop offset="0.20752" stop-color="#D7D7D7"/>
<stop offset="0.48554" stop-color="#717171"/>
<stop offset="0.843136"/>
</linearGradient>
</defs>
</svg>
